<svg width="511" height="597" viewBox="0 0 511 597" fill="none" xmlns="http://www.w3.org/2000/svg">
<g clip-path="url(#clip0_197_10174)">
<path d="M446.451 412.212H438.18L430 407.49L440.627 401.359L446.451 412.212Z" fill="url(#paint0_linear_197_10174)"/>
<path d="M446.451 403.264L438.421 398.632L446.451 394L454.481 398.632L446.451 403.264Z" fill="url(#paint1_linear_197_10174)"/>
<path d="M446.451 412.214L438.421 407.582V398.633L446.451 403.265V412.214Z" fill="url(#paint2_linear_197_10174)"/>
<path d="M454.481 407.582L446.451 412.214V403.265L454.481 398.633V407.582Z" fill="url(#paint3_linear_197_10174)"/>
<path d="M458.278 500.581H452.109L446 497.058L453.925 492.486L458.278 500.581Z" fill="url(#paint4_linear_197_10174)"/>
<path d="M458.278 493.91L452.289 490.463L458.278 487L464.267 490.463L458.278 493.91Z" fill="url(#paint5_linear_197_10174)"/>
<path d="M458.278 500.581L452.289 497.118V490.463L458.278 493.911V500.581Z" fill="url(#paint6_linear_197_10174)"/>
<path d="M464.267 497.118L458.278 500.581V493.911L464.267 490.463V497.118Z" fill="url(#paint7_linear_197_10174)"/>
<path d="M416.482 555.015H400.467L382.109 544.433L402.718 532.561L416.482 555.015Z" fill="url(#paint8_linear_197_10174)"/>
<path d="M421.12 570.619H412.024L403.003 565.417L414.711 558.672L421.12 570.619Z" fill="url(#paint9_linear_197_10174)"/>
<path d="M416.482 537.686L400.902 528.707L416.482 519.729L432.063 528.707L416.482 537.686Z" fill="url(#paint10_linear_197_10174)"/>
<path d="M416.482 555.014L400.902 546.035V528.707L416.482 537.686V555.014Z" fill="url(#paint11_linear_197_10174)"/>
<path d="M432.063 546.035L416.482 555.014V537.686L432.063 528.707V546.035Z" fill="url(#paint12_linear_197_10174)"/>
<path d="M421.12 560.771L412.28 555.675L421.12 550.578L429.961 555.675L421.12 560.771Z" fill="url(#paint13_linear_197_10174)"/>
<path d="M421.12 570.619L412.28 565.522V555.674L421.12 560.77V570.619Z" fill="url(#paint14_linear_197_10174)"/>
<path d="M429.961 565.522L421.12 570.619V560.77L429.961 555.674V565.522Z" fill="url(#paint15_linear_197_10174)"/>
<path d="M123.007 430.164H103.389L80.9038 417.198L106.151 402.643L123.007 430.164Z" fill="url(#paint16_linear_197_10174)"/>
<path d="M123.007 408.924L103.944 397.936L123.007 386.934L142.084 397.936L123.007 408.924Z" fill="url(#paint17_linear_197_10174)"/>
<path d="M123.007 430.164L103.944 419.161V397.936L123.007 408.923V430.164Z" fill="url(#paint18_linear_197_10174)"/>
<path d="M142.085 419.161L123.007 430.164V408.923L142.085 397.936V419.161Z" fill="url(#paint19_linear_197_10174)"/>
<path d="M99.5913 445.334L0 502.76L87.6283 553.276H258.652H270.36H293.415L305.528 515.651L307.209 445.334H99.5913Z" fill="url(#paint20_linear_197_10174)"/>
<path d="M349.553 536.098L267.118 488.565V465.721L349.553 513.253V536.098Z" fill="url(#paint21_linear_197_10174)"/>
<path d="M388.954 513.374L349.552 536.098V513.254L388.954 490.529V513.374Z" fill="url(#paint22_linear_197_10174)"/>
<path d="M349.553 513.253L267.118 465.721L306.534 442.996L388.954 490.529L349.553 513.253Z" fill="url(#paint23_linear_197_10174)"/>
<path d="M293.385 553.397L210.95 505.864V483.02L293.385 530.537V553.397Z" fill="url(#paint24_linear_197_10174)"/>
<path d="M332.786 530.673L293.385 553.397V530.538L332.786 507.828V530.673Z" fill="url(#paint25_linear_197_10174)"/>
<path d="M293.385 530.537L210.95 483.02L250.352 460.295L332.787 507.828L293.385 530.537Z" fill="url(#paint26_linear_197_10174)"/>
<path d="M250.352 505.414L332.786 457.882V435.037L250.352 482.555V505.414Z" fill="url(#paint27_linear_197_10174)"/>
<path d="M210.95 482.69L250.352 505.415V482.555L210.95 459.846V482.69Z" fill="url(#paint28_linear_197_10174)"/>
<path d="M250.352 482.555L332.787 435.037L293.385 412.312L210.95 459.845L250.352 482.555Z" fill="url(#paint29_linear_197_10174)"/>
<path d="M293.445 530.252L375.865 482.719V459.875L293.445 507.408V530.252Z" fill="url(#paint30_linear_197_10174)"/>
<path d="M254.029 507.528L293.445 530.253V507.408L254.029 484.684V507.528Z" fill="url(#paint31_linear_197_10174)"/>
<path d="M293.445 507.408L375.865 459.875L336.464 437.15L254.029 484.683L293.445 507.408Z" fill="url(#paint32_linear_197_10174)"/>
<path d="M250.352 481.924L332.786 434.406V411.547L250.352 459.08V481.924Z" fill="url(#paint33_linear_197_10174)"/>
<path d="M210.95 459.2L250.352 481.925V459.08L210.95 436.355V459.2Z" fill="url(#paint34_linear_197_10174)"/>
<path d="M250.352 459.08L332.787 411.547L293.385 388.822L210.95 436.355L250.352 459.08Z" fill="url(#paint35_linear_197_10174)"/>
<path d="M336.464 481.924L254.029 434.406V411.547L336.464 459.08V481.924Z" fill="url(#paint36_linear_197_10174)"/>
<path d="M375.865 459.2L336.464 481.925V459.08L375.865 436.355V459.2Z" fill="#ABC8EB"/>
<path d="M336.464 459.08L254.029 411.547L293.445 388.822L375.865 436.355L336.464 459.08Z" fill="#ABC8EB"/>
<path d="M271.861 511.094L189.441 463.576V440.717L271.861 488.25V511.094Z" fill="url(#paint37_linear_197_10174)"/>
<path d="M311.277 488.385L271.861 511.094V488.25L311.277 465.525V488.385Z" fill="url(#paint38_linear_197_10174)"/>
<path d="M271.861 488.25L189.441 440.717L228.842 418.008L311.277 465.526L271.861 488.25Z" fill="url(#paint39_linear_197_10174)"/>
<path d="M250.352 458.78L332.786 411.262V388.402L250.352 435.935V458.78Z" fill="url(#paint40_linear_197_10174)"/>
<path d="M210.95 436.07L250.352 458.78V435.936L210.95 413.211V436.07Z" fill="url(#paint41_linear_197_10174)"/>
<path d="M250.352 435.936L332.787 388.403L293.385 365.693L210.95 413.211L250.352 435.936Z" fill="url(#paint42_linear_197_10174)"/>
<path d="M329.785 439.818L293.445 460.774V483.634L329.785 462.663V439.818Z" fill="url(#paint43_linear_197_10174)"/>
<path d="M334.077 437.345V460.189L375.865 436.1V413.256L334.077 437.345Z" fill="url(#paint44_linear_197_10174)"/>
<path d="M254.029 460.909L293.445 483.634V460.774L254.029 438.064V460.909Z" fill="url(#paint45_linear_197_10174)"/>
<path d="M318.527 446.308L375.865 413.256L336.464 390.531L318.527 400.874V446.308Z" fill="url(#paint46_linear_197_10174)"/>
<path d="M301.536 446.728L358.889 413.66L319.473 390.936L301.536 401.279V446.728Z" fill="#89A7C9"/>
<path d="M314.234 403.348L254.029 438.049L293.445 460.774L314.234 448.797V403.348Z" fill="url(#paint47_linear_197_10174)"/>
<path d="M350.273 491.414L267.838 443.882V421.037L350.273 468.555V491.414Z" fill="url(#paint48_linear_197_10174)"/>
<path d="M389.674 468.69L350.273 491.415V468.555L389.674 445.846V468.69Z" fill="url(#paint49_linear_197_10174)"/>
<path d="M350.273 468.555L267.838 421.037L307.239 398.312L389.674 445.845L350.273 468.555Z" fill="url(#paint50_linear_197_10174)"/>
<path d="M250.352 411.907L332.786 364.389V341.529L250.352 389.062V411.907Z" fill="url(#paint51_linear_197_10174)"/>
<path d="M210.95 389.197L250.352 411.907V389.062L210.95 366.338V389.197Z" fill="url(#paint52_linear_197_10174)"/>
<path d="M250.352 389.063L332.787 341.53L293.385 318.82L210.95 366.338L250.352 389.063Z" fill="url(#paint53_linear_197_10174)"/>
<path d="M293.445 436.744L375.865 389.227V366.367L293.445 413.9V436.744Z" fill="url(#paint54_linear_197_10174)"/>
<path d="M254.029 414.035L293.445 436.745V413.9L254.029 391.176V414.035Z" fill="url(#paint55_linear_197_10174)"/>
<path d="M293.445 413.901L375.865 366.368L336.464 343.658L254.029 391.176L293.445 413.901Z" fill="url(#paint56_linear_197_10174)"/>
<path d="M336.464 388.989L254.029 341.456V318.611L336.464 366.144V388.989Z" fill="url(#paint57_linear_197_10174)"/>
<path d="M375.865 366.264L336.464 388.989V366.144L375.865 343.42V366.264Z" fill="url(#paint58_linear_197_10174)"/>
<path d="M336.464 366.144L254.029 318.611L293.445 295.887L375.865 343.419L336.464 366.144Z" fill="url(#paint59_linear_197_10174)"/>
<path d="M293.385 413.826L210.95 366.294V343.449L293.385 390.982V413.826Z" fill="url(#paint60_linear_197_10174)"/>
<path d="M332.786 391.102L293.385 413.827V390.982L332.786 368.258V391.102Z" fill="url(#paint61_linear_197_10174)"/>
<path d="M293.385 390.982L210.95 343.449L250.352 320.725L332.787 368.257L293.385 390.982Z" fill="url(#paint62_linear_197_10174)"/>
<path d="M250.352 365.844L332.786 318.311V295.467L250.352 343V365.844Z" fill="url(#paint63_linear_197_10174)"/>
<path d="M210.95 343.12L250.352 365.844V343L210.95 320.275V343.12Z" fill="url(#paint64_linear_197_10174)"/>
<path d="M250.352 343L332.787 295.467L293.385 272.742L210.95 320.275L250.352 343Z" fill="url(#paint65_linear_197_10174)"/>
<path d="M293.445 390.682L375.865 343.164V320.305L293.445 367.837V390.682Z" fill="url(#paint66_linear_197_10174)"/>
<path d="M254.029 367.973L293.445 390.682V367.838L254.029 345.113V367.973Z" fill="url(#paint67_linear_197_10174)"/>
<path d="M293.445 367.838L375.865 320.305L336.464 297.596L254.029 345.113L293.445 367.838Z" fill="url(#paint68_linear_197_10174)"/>
<path d="M336.464 342.805L254.029 295.272V272.428L336.464 319.945V342.805Z" fill="url(#paint69_linear_197_10174)"/>
<path d="M375.865 320.081L336.464 342.805V319.946L375.865 297.236V320.081Z" fill="url(#paint70_linear_197_10174)"/>
<path d="M336.464 319.945L254.029 272.428L293.445 249.703L375.865 297.236L336.464 319.945Z" fill="url(#paint71_linear_197_10174)"/>
<path d="M317.176 380.504L234.741 332.971V310.127L317.176 357.66V380.504Z" fill="url(#paint72_linear_197_10174)"/>
<path d="M356.577 357.78L317.176 380.505V357.66L356.577 334.936V357.78Z" fill="url(#paint73_linear_197_10174)"/>
<path d="M317.176 357.66L264.326 327.186L303.727 304.461L356.577 334.935L317.176 357.66Z" fill="url(#paint74_linear_197_10174)"/>
<path d="M250.352 319.66L332.786 272.128V249.283L250.352 296.816V319.66Z" fill="url(#paint75_linear_197_10174)"/>
<path d="M210.95 296.936L250.352 319.661V296.816L210.95 274.092V296.936Z" fill="url(#paint76_linear_197_10174)"/>
<path d="M250.352 296.816L332.787 249.283L293.385 226.559L210.95 274.091L250.352 296.816Z" fill="url(#paint77_linear_197_10174)"/>
<path d="M293.445 344.498L375.865 296.966V274.121L293.445 321.654V344.498Z" fill="url(#paint78_linear_197_10174)"/>
<path d="M254.029 321.774L293.445 344.499V321.654L254.029 298.93V321.774Z" fill="url(#paint79_linear_197_10174)"/>
<path d="M293.445 321.654L375.865 274.121L336.464 251.396L254.029 298.929L293.445 321.654Z" fill="url(#paint80_linear_197_10174)"/>
<path d="M336.464 251.396L254.029 298.929L279.726 313.739L308.921 296.921H336.344L375.865 274.121L336.464 251.396Z" fill="url(#paint81_linear_197_10174)"/>
<path d="M336.464 296.561L254.029 249.028V226.184L336.464 273.716V296.561Z" fill="url(#paint82_linear_197_10174)"/>
<path d="M375.865 273.837L336.464 296.561V273.717L375.865 250.992V273.837Z" fill="url(#paint83_linear_197_10174)"/>
<path d="M336.464 273.716L254.029 226.184L293.445 203.459L375.865 250.992L336.464 273.716Z" fill="url(#paint84_linear_197_10174)"/>
<path d="M250.352 273.416L332.786 225.899V203.039L250.352 250.572V273.416Z" fill="url(#paint85_linear_197_10174)"/>
<path d="M210.95 250.707L250.352 273.417V250.572L210.95 227.848V250.707Z" fill="url(#paint86_linear_197_10174)"/>
<path d="M250.352 250.572L332.787 203.04L293.385 180.33L210.95 227.848L250.352 250.572Z" fill="url(#paint87_linear_197_10174)"/>
<path d="M293.445 298.255L375.865 250.737V227.893L293.445 275.41V298.255Z" fill="url(#paint88_linear_197_10174)"/>
<path d="M254.029 275.545L293.445 298.255V275.41L254.029 252.686V275.545Z" fill="url(#paint89_linear_197_10174)"/>
<path d="M293.445 275.41L375.865 227.893L336.464 205.168L254.029 252.686L293.445 275.41Z" fill="url(#paint90_linear_197_10174)"/>
<path d="M296.612 271.408C296.612 271.408 297.453 264.468 297.618 264.618L358.213 229.871L325.927 211.254L254.029 252.701L286.481 271.408H296.612Z" fill="url(#paint91_linear_197_10174)"/>
<path d="M296.612 271.422L214.192 223.889V201.045L296.612 248.563V271.422Z" fill="url(#paint92_linear_197_10174)"/>
<path d="M336.029 248.698L296.612 271.423V248.563L336.029 225.854V248.698Z" fill="url(#paint93_linear_197_10174)"/>
<path d="M296.612 248.563L214.192 201.045L253.594 178.32L336.028 225.853L296.612 248.563Z" fill="url(#paint94_linear_197_10174)"/>
<path d="M250.352 226.543L332.786 179.026V156.166L250.352 203.699V226.543Z" fill="url(#paint95_linear_197_10174)"/>
<path d="M210.95 203.819L250.352 226.544V203.699L210.95 180.975V203.819Z" fill="url(#paint96_linear_197_10174)"/>
<path d="M250.352 203.699L332.787 156.166L293.385 133.441L210.95 180.974L250.352 203.699Z" fill="url(#paint97_linear_197_10174)"/>
<path d="M293.445 251.381L375.865 203.863V181.004L293.445 228.537V251.381Z" fill="url(#paint98_linear_197_10174)"/>
<path d="M254.029 228.672L293.445 251.382V228.537L254.029 205.812V228.672Z" fill="url(#paint99_linear_197_10174)"/>
<path d="M293.445 228.537L375.865 181.005L336.464 158.295L254.029 205.813L293.445 228.537Z" fill="url(#paint100_linear_197_10174)"/>
<path d="M293.535 168.351C290.023 167.512 251.522 166.462 245.924 171.664C237.098 179.863 271.276 183.611 271.276 183.611C271.621 182.082 273.257 175.666 273.257 175.666C273.257 175.666 286.256 174.362 291.179 174.317C292.139 174.317 293.07 174.527 293.941 174.917C294.136 175.007 294.331 175.081 294.526 175.156C295.307 175.441 297.093 175.951 300.035 175.951C301.491 175.951 297.183 169.22 293.535 168.351Z" fill="url(#paint101_linear_197_10174)"/>
<path d="M303.172 172.924C302.376 172.235 300.875 171.036 299.329 170.226C298.399 170.331 297.453 170.346 296.462 170.301C294.436 170.196 292.079 169.941 290.338 168.787C290.308 169.177 290.308 169.582 290.338 169.971C290.398 170.766 290.458 171.096 291.389 171.665C296.057 174.513 296.702 174.903 297.543 175.308C298.504 175.787 299.674 176.387 302.181 175.667C303.457 175.098 303.532 174.573 303.472 174.109C303.442 173.854 303.502 173.194 303.172 172.909V172.924Z" fill="#B8D7FC"/>
<path d="M302.917 172.474C301.776 171.544 298.969 169.671 297.573 168.427C297.198 168.082 296.282 167.152 296.072 166.673C295.532 165.429 292.68 165.429 291.074 166.268C290.323 166.658 290.188 167.947 290.263 169.131C290.323 169.926 290.383 170.255 291.314 170.825C295.982 173.673 297.003 174.198 297.873 174.557C298.714 174.917 299.584 175.262 301.416 174.857C302.031 174.722 302.631 174.423 303.052 173.958C303.427 173.538 303.622 173.028 302.917 172.474Z" fill="white"/>
<path d="M267.238 182.365C268.739 183.729 272.476 184.359 273.527 182.275C274.008 181.301 272.807 174.675 272.777 172.786C272.777 172.247 272.747 171.288 272.747 171.288C272.612 171.093 272.056 170.958 271.846 170.853C270.945 170.403 269.294 170.763 268.289 170.703C267.778 170.673 267.298 174.076 267.253 174.405C266.968 176.474 266.067 181.316 267.253 182.38L267.238 182.365Z" fill="#B8D7FC"/>
<path d="M267.238 181.241C268.739 182.605 272.476 183.235 273.527 181.151C274.007 180.177 272.957 173.567 272.912 171.678C272.912 171.138 272.882 170.179 272.882 170.179C272.747 169.984 272.041 169.819 271.831 169.714C270.93 169.264 269.279 169.624 268.274 169.564C267.763 169.534 267.283 172.937 267.238 173.267C266.953 175.335 266.052 180.177 267.238 181.241Z" fill="white"/>
<path d="M296.973 153.706C296.612 151.817 296.522 150.978 296.522 148.669C296.522 136.573 294.886 127.264 294.541 126.319C293.971 124.776 293.04 123.381 291.839 122.272C291.839 122.272 276.889 120.548 275.628 125.84C273.992 130.622 271.966 139.211 271.275 146.091C271.14 147.5 270.855 148.879 270.36 150.213C269.129 153.571 268.063 153.571 267.823 160.646C267.703 164.049 267.688 166.867 267.508 170.27C267.268 171.829 272.897 172.488 273.212 170.674C273.437 169.37 274.458 166.267 274.878 165.008C276.049 161.501 276.274 160.361 276.889 157.049C277.279 154.98 277.475 153.871 278.705 151.667C281.527 146.646 282.998 143.438 285.13 137.502C286.361 141.654 287.501 145.851 288.672 149.644C289.287 151.652 289.152 151.952 288.912 153.841C288.357 158.308 289.573 161.051 290.098 166.507C290.278 168.291 296.312 168.786 296.432 166.162C296.642 161.576 297.678 157.663 296.943 153.721L296.973 153.706Z" fill="#1E54B7"/>
<path d="M343.188 10.4196C319.337 24.8099 303.667 -10.0415 275.854 4.45366L288.387 46.9049C316.38 30.6109 311.832 72.5225 355.617 52.5261L343.203 10.4196H343.188Z" fill="#F9C800"/>
<path d="M278.24 117.881C278.39 119.44 277.895 120.789 276.064 125.301C274.218 129.843 294.616 130.322 294.181 125.631C292.59 108.752 296.417 104.675 295.772 97.2099C295.592 95.2013 293.1 89.5202 289.978 91.6337C289.213 92.1584 279.831 99.1137 276.769 104.045C275.433 106.204 277.655 111.915 278.24 117.866V117.881Z" fill="white"/>
<path d="M302.331 83.615C302.316 82.8505 297.558 81.4714 296.492 82.8655C295.742 83.8548 293.43 87.7672 292.98 88.9364C292.575 89.9707 296.867 93.1785 297.648 92.2191C298.158 91.5896 302.376 85.3688 302.331 83.615Z" fill="white"/>
<path d="M287.246 95.7415C288.357 93.4331 293.4 87.5571 294.856 85.4585C295.877 83.9745 301.881 85.5784 300.92 87.1224C295.592 98.3348 294.586 100.448 292.274 101.468C289.558 102.682 285.04 100.328 287.261 95.7415H287.246Z" fill="white"/>
<path d="M294.901 70.9777C294.736 70.2132 297.873 69.6136 298.113 70.3331C298.939 73.436 300.5 77.0785 301.926 80.4513C302.661 82.1901 302.331 83.6141 302.271 84.3336C302.181 85.293 300.2 87.2866 299.209 87.1217C294.826 86.4022 295.982 76.1642 294.901 70.9927V70.9777Z" fill="white"/>
<path d="M317.806 149.929C317.476 149.929 317.176 149.719 317.086 149.389L309.326 122.632C309.206 122.228 309.446 121.823 309.836 121.703C310.226 121.583 310.647 121.823 310.767 122.213L318.527 148.969C318.647 149.374 318.407 149.779 318.017 149.899C317.941 149.914 317.881 149.929 317.806 149.929Z" fill="#303E84"/>
<path d="M312.358 118.585C312.328 118 311.967 117.67 311.502 117.385C310.707 116.906 309.581 116.711 308.755 116.996C307.284 117.49 306.699 119.169 305.093 119.469C304.853 119.514 304.613 119.529 304.357 119.574C304.568 120.713 304.763 121.852 304.928 123.007C304.958 123.007 304.973 123.007 305.003 122.992C305.948 122.812 306.894 122.707 307.855 122.902C308.83 123.097 310.647 123.966 311.427 123.037C311.982 122.377 312.298 121.538 312.313 120.668C312.313 120.323 312.283 119.994 312.298 119.649C312.313 119.289 312.388 118.944 312.373 118.6L312.358 118.585Z" fill="#FFC0A1"/>
<path d="M308.71 118.541C308.38 118.541 308.08 118.331 307.99 118.001L274.022 0.960399C273.902 0.555674 274.142 0.150948 274.533 0.0310298C274.938 -0.0888888 275.343 0.150949 275.463 0.540684L309.431 117.581C309.551 117.986 309.311 118.391 308.921 118.511C308.845 118.526 308.785 118.541 308.71 118.541Z" fill="#303E84"/>
<path d="M295.261 69.8844C294.916 69.6146 294.436 69.2998 293.971 69.4197C293.505 69.5396 293.445 70.1392 292.89 70.0643C292.47 70.0193 292.47 69.6296 292.38 69.2998C292.29 68.985 292.004 68.7452 291.959 68.4304C291.944 68.2805 291.989 68.1306 292.004 67.9657C292.049 67.501 291.764 67.0813 291.719 66.6166C291.644 65.9571 292.064 65.3275 292.62 64.9827C293.025 64.7279 293.625 64.3831 294.121 64.4881C294.706 64.623 295.457 65.2376 295.922 65.5973C296.357 65.9271 296.777 66.3318 297.078 66.8115C297.393 67.3212 297.273 67.7858 297.303 68.3704C297.378 69.6296 297.708 70.484 297.708 70.5739C297.708 71.0536 296.853 71.6382 296.147 71.5333C296.147 71.5333 295.862 70.3491 295.261 69.8844Z" fill="#FFC0A1"/>
<path d="M288.297 94.0329C285.685 94.2278 282.788 93.6132 280.372 93.0586C281.527 94.6325 281.737 96.926 281.903 97.9453C282.128 99.2944 283.284 101.543 286.045 101.003C286.766 100.853 286.976 100.419 287.411 100.119L288.492 101.453L288.447 99.5042C289.408 99.1295 289.858 98.1551 289.543 97.4356C289.107 96.4613 288.552 95.0672 288.297 94.0329Z" fill="#EFA480"/>
<path d="M287.561 100.673C286.18 101.707 288.747 103.176 289.588 101.977C289.858 101.588 290.263 99.9836 289.663 99.6838C289.137 99.429 287.967 100.373 287.576 100.658L287.561 100.673Z" fill="#D97666"/>
<path d="M289.753 98.6953C289.498 99.175 289.242 99.6697 288.987 100.149L289.633 101.169C289.633 101.169 290.038 99.9395 290.038 99.3849C290.038 99.13 289.918 98.8752 289.753 98.6953Z" fill="#D97666"/>
<path d="M285.955 101.153C286.496 101.093 287.051 101.033 287.591 100.973L288.312 101.947C288.312 101.947 287.021 101.887 286.496 101.677C286.256 101.587 286.06 101.392 285.955 101.153Z" fill="#D97666"/>
<path d="M286.255 102.982L287.396 100.134C284.844 101.094 282.038 99.7145 281.722 96.9414L281.467 97.8108C281.287 98.4104 281.332 99.07 281.617 99.6246C282.413 101.169 283.794 102.698 286.24 102.997L286.255 102.982Z" fill="white"/>
<path d="M289.017 96.4316C289.107 96.5366 289.393 98.3653 288.432 99.5045L291.119 99.6994C291.119 99.6994 289.978 97.6608 289.017 96.4316Z" fill="white"/>
<path d="M289.528 101.498L288.447 101.978C290.383 119.231 297.063 110.207 302.511 112.186L304.913 110.252L302.331 108.678C298.354 108.228 291.719 115.259 289.528 101.498Z" fill="#D97666"/>
<path d="M287.787 88.4422C287.336 87.6477 287.081 86.2836 285.64 84.4998C284.454 83.0308 282.518 83.1058 280.762 83.8253C278.375 84.7996 275.749 88.2323 276.904 90.7806C277.37 91.7849 278.12 94.648 281.542 96.3568C286.015 98.9051 290.744 98.1706 290.909 96.1619C290.969 95.3975 290.593 94.4831 290.368 93.7636C289.137 89.8812 288.432 89.5964 287.772 88.4422H287.787Z" fill="#F9BB9C"/>
<path d="M286.691 86.0729C285.25 80.047 275.148 83.3597 276.274 89.7904C275.058 94.2873 279.426 96.8206 282.353 96.5808C283.209 96.5058 282.443 95.9212 282.203 95.3966C281.197 93.268 279.816 91.814 281.182 89.3407C281.617 88.5762 284.319 85.5333 286.691 86.0579V86.0729Z" fill="#303E84"/>
<path d="M290.008 92.2781C289.873 92.0083 288.777 92.7878 288.867 93.2225C288.417 93.0426 287.666 93.4623 287.757 93.867C287.832 94.2418 287.696 94.3767 287.486 94.6615C287.486 95.1262 287.366 95.351 286.856 95.441C285.94 95.5909 283.974 95.8157 282.098 95.0512C282.068 95.0812 282.053 95.1112 282.023 95.1412C281.978 95.2161 281.918 95.2761 281.873 95.351C281.677 95.6358 281.482 95.9057 281.317 96.1905C281.272 96.2654 281.227 96.3254 281.182 96.3853C283.779 97.7344 287.516 99.0235 290.038 97.3747C292.139 95.9956 290.743 93.7171 289.993 92.2781H290.008Z" fill="#AC8979"/>
<path d="M286.766 95.3216C288.282 95.7113 287.877 93.4329 288.867 93.223C287.411 92.2936 287.727 95.1417 286.766 95.3216Z" fill="#303E84"/>
<path d="M289.558 92.2047C288.507 92.3695 288.867 93.224 288.867 93.224C289.167 92.8042 289.182 92.7743 290.293 92.8192C290.638 92.8492 290.939 92.5794 290.939 92.1897C290.668 92.4895 289.903 92.1447 289.573 92.1897L289.558 92.2047Z" fill="#303E84"/>
<path d="M279.141 94.9023C278.961 95.5169 279.396 96.1764 279.981 96.4613C280.552 96.7461 281.227 96.7611 281.858 96.7611C282.083 96.7611 282.308 96.7611 282.518 96.6861C282.728 96.6112 282.923 96.4463 282.968 96.2214C283.013 95.9516 282.833 95.6818 282.638 95.4869C282.143 94.9623 281.407 94.3027 280.687 94.1228C280.116 93.9729 279.306 94.3177 279.141 94.9173V94.9023Z" fill="#F9BB9C"/>
<path d="M304.628 119.23C304.087 119.275 296.087 119.155 292.785 118.916C286.601 106.984 282.923 103.971 280.477 103.311C278.12 102.682 273.287 104.855 275.989 109.772C278.075 113.579 288.402 123.772 289.588 124.102C292.41 124.897 304.072 123.712 305.213 123.443C305.859 123.742 305.498 119.335 304.613 119.245L304.628 119.23Z" fill="white"/>
<path d="M304.117 436.072C301.235 442.097 332.051 442.952 332.051 442.952C332.786 443.387 336.974 451.286 346.415 457.792C347.256 458.376 347.436 459.726 348.397 460.085C348.757 460.22 349.297 460.43 349.147 460.79C349.387 460.835 349.643 460.79 349.853 460.67C350.063 460.55 349.748 456.728 349.823 456.248C350.048 454.674 351.744 453.34 350.753 451.916C348.967 449.353 347.181 446.774 345.395 444.211C344.929 443.537 344.449 442.652 344.884 441.963C345.14 441.558 345.635 441.378 346.1 441.273C347.946 440.883 365.538 441.948 365.538 441.948C366.814 441.243 367.324 438.665 367.294 437.211C367.279 436.027 366.574 434.947 365.763 434.078C362.071 430.196 345.815 426.883 344.524 426.883C326.107 426.883 307.014 430.001 304.117 436.072Z" fill="url(#paint102_linear_197_10174)"/>
<path d="M376.375 405.356C374.799 405.431 368.825 405.911 362.026 407.665C362.026 407.665 354.055 399.825 350.858 397.636C346.806 394.848 342.243 399.525 346.941 404.697C348.847 407.005 355.241 410.902 360.405 412.641C363.572 413.705 374.259 409.988 377.351 409.373C378.176 409.298 377.321 405.311 376.375 405.356Z" fill="white"/>
<path d="M388.578 405.926C387.588 406.211 386.102 406.765 385.216 406.825C385.111 406.825 385.156 406.6 385.216 406.525C385.336 406.345 386.897 405.251 388.143 403.827C388.954 402.898 387.978 402.568 387.513 403.048C386.432 404.157 385.997 404.517 385.711 404.577C385.711 404.577 383.745 404.502 382.935 404.412C382.604 404.367 381.749 404.277 381.644 403.572C381.584 403.153 383.52 403.632 384.03 402.478C384.12 402.193 383.85 402.193 383.565 402.163C382.995 402.103 380.683 402.163 380.068 402.478C378.987 403.033 377.831 404.727 377.336 405.101C377.216 405.191 376.465 405.551 376.435 405.566C375.85 405.911 376.675 409.194 377.411 409.089C379.512 408.804 381.659 408.819 384.105 409.343C385.456 409.628 387.318 409.988 387.693 409.403C388.158 408.714 385.787 408.534 384.841 408.339C385.711 408.069 388.053 407.365 388.653 407.14C389.659 406.765 389.599 405.656 388.593 405.941L388.578 405.926Z" fill="#FBBD9E"/>
<path d="M384.586 403.273C384.856 403.783 385.126 404.053 385.231 404.428C385.231 404.428 384.466 405.612 384.346 406.152C384.21 406.721 385.321 407.096 385.516 406.796C386.102 405.882 386.537 404.787 386.462 404.428C386.417 404.203 385.606 403.154 385.246 402.629C384.991 402.269 384.256 402.629 384.601 403.273H384.586Z" fill="url(#paint103_linear_197_10174)"/>
<path d="M374.499 440.478C373.613 439.968 364.983 440.538 361.56 440.658C360.66 440.688 360.209 440.913 360.179 441.797C360.164 442.352 360.254 442.891 360.465 443.401L367.489 445.275C369.846 445.665 372.472 445.769 373.058 445.365C374.079 444.66 375.384 441.003 374.499 440.493V440.478Z" fill="white"/>
<path d="M379.407 432.833C378.672 430.045 375.565 429.506 369.2 428.636C361.86 427.632 359.129 427.242 351.429 426.897C348.802 426.777 345.515 439.654 349.297 439.938C352.659 439.669 356.022 439.384 359.399 439.114C361.065 438.979 362.821 438.814 364.217 437.9C363.166 439.324 362.101 440.763 361.05 442.187C357.312 447.253 358.483 449.187 354.746 453.729C354.205 454.509 356.967 456.517 357.523 456.097C360.99 452.725 366.138 448.408 366.348 448.198C366.348 448.198 369.23 445.605 373.238 441.782C375.309 439.804 376.96 438.454 378.086 437.345C379.272 436.176 379.857 434.452 379.422 432.833H379.407Z" fill="#1E54B7"/>
<path d="M355.091 452.379C354.776 452.694 354.115 453.683 353.68 453.803C353.365 453.893 353.035 453.968 352.72 454.043C351.939 454.208 351.143 454.253 350.363 454.193L348.021 455.227C347.886 455.991 348.532 464.176 350.438 464.221C351.459 464.236 352.72 459.289 353.515 458.315C353.665 458.12 355.842 456.711 357.102 455.752C357.643 455.332 356.217 452.978 355.091 452.409V452.379Z" fill="white"/>
<path d="M347.391 441.182C349.387 440.688 349.838 439.878 349.838 439.878C348.757 434.692 349.477 428.681 352.074 426.912C350.213 427.062 349.192 425.338 348.937 424.604L333.642 428.186C333.327 429.43 332.816 430.614 332.486 431.859C331.54 435.321 331.735 439.338 333.402 442.516C337.89 440.882 342.393 440.823 347.391 441.182Z" fill="#1E54B7"/>
<path d="M355.421 444.975C353.425 445.53 350.183 446.849 350.183 446.849C350.183 446.849 348.787 444.735 347.406 441.183C346.746 438.155 343.488 434.782 339.616 434.782C338.325 434.782 333.912 434.632 332.081 438.08C332.351 440.164 333.026 442.157 334.227 443.821C338.535 449.802 347.631 456.757 350.333 457.477C352.735 458.121 353.83 456.637 354.911 454.479C355.752 452.8 357.823 449.352 360.014 443.701C358.168 444.151 357.268 444.451 355.436 444.96L355.421 444.975Z" fill="#1E54B7"/>
<path d="M332.591 407.56C331.781 416.929 339.841 422.46 334.828 427.122C334.452 427.467 334.227 428.006 334.407 428.486C336.013 432.758 350.363 430.704 349.147 424.574C347.601 414.291 353.785 415.565 351.489 409.674C351.158 408.834 350.588 408.1 350.288 407.26C349.387 404.577 353.695 399.466 350.018 397.067C349.312 396.603 348.427 396.603 347.646 396.917C343.788 398.506 332.921 403.798 332.591 407.575V407.56Z" fill="white"/>
<path d="M332.967 406.735C331.916 408.699 331.526 411.832 331.33 415.774C331.24 417.663 331.466 419.731 330.64 421.47C328.674 425.532 328.524 427.391 327.443 432.637C327.308 433.882 331.586 435.456 332.096 433.762C336.149 426.507 334.152 425.053 335.563 422.309C338.145 417.183 337.034 416.089 338.235 412.341C340.336 405.836 334.302 404.292 332.982 406.735H332.967Z" fill="white"/>
<path d="M331.675 434.196C331.766 432.053 328.028 431.618 327.743 432.712C327.097 434.646 325.927 436.49 326.107 438.498C326.152 439.023 326.347 439.578 326.812 439.817C327.097 439.952 327.428 439.952 327.698 440.102C327.908 440.222 328.073 440.432 328.223 440.627C328.794 441.346 328.358 441.316 329.064 441.886C330.34 442.695 331.255 441.616 331.345 441.076C331.615 439.473 331.946 437.824 331.615 435.635C331.51 434.931 331.48 434.631 331.66 434.196H331.675Z" fill="#FBBD9E"/>
<path d="M330.25 441.872C331.42 441.617 331.36 441.257 331.571 440.568C331.631 440.358 331.946 439.114 331.511 438.949C331 438.754 330.46 440.268 330.205 440.418C329.814 440.643 327.998 440.148 327.623 440.358C326.872 440.808 328.388 442.277 330.25 441.872Z" fill="url(#paint104_linear_197_10174)"/>
<path d="M327.833 438.604C328.343 438.469 328.749 437.78 329.034 437.39C329.379 436.925 329.754 436.461 330.25 436.161C330.37 436.086 330.52 436.026 330.64 436.101C330.715 436.146 330.745 436.221 330.775 436.311C330.85 436.536 330.88 436.775 330.85 437C330.85 437.045 330.85 437.105 330.85 437.15C330.88 437.21 330.94 437.24 331 437.285C331.135 437.39 331.225 437.585 331.21 437.75C331.21 437.915 331.12 438.05 331.03 438.184C330.715 438.724 330.385 439.264 330.069 439.803C329.949 439.998 329.829 440.208 329.664 440.358C329.199 440.778 328.508 440.763 327.893 440.733C327.503 440.718 327.098 440.688 326.707 440.613C326.482 440.568 326.242 440.493 326.077 440.313C325.687 439.908 325.732 439.294 325.972 438.829C326.152 438.469 326.242 438.484 326.617 438.529C326.962 438.574 327.308 438.589 327.668 438.574C327.728 438.574 327.773 438.574 327.833 438.544V438.604Z" fill="url(#paint105_linear_197_10174)"/>
<path d="M327.518 435.006C328.508 435.231 329.199 435.381 329.199 435.381C329.364 435.606 330.144 436.056 330.4 436.161C330.775 436.311 331.841 436.071 331.12 435.126C330.79 434.707 329.919 433.792 329.739 433.657C329.589 433.537 328.268 432.803 327.698 432.863C326.572 432.998 326.497 434.767 327.518 435.006Z" fill="url(#paint106_linear_197_10174)"/>
<path d="M345.139 400.275L346.43 405.942L349.072 406.466C349.072 406.466 348.261 404.757 347.151 402.419C346.821 401.714 345.274 400.275 345.139 400.275Z" fill="white"/>
<path d="M342.077 397.637C343.248 398.791 346.43 401.504 346.43 401.564C346.415 403.333 346.49 405.342 346.43 405.941L346.1 407.275L345.575 406.436C343.999 406.196 341.837 404.307 341.297 403.528C340.726 402.718 340.201 401.429 340.486 400.425C340.606 399.99 340.967 399.63 341.327 399.241C341.717 398.806 341.927 398.251 342.077 397.637Z" fill="#F1A782"/>
<path d="M341.267 399.33C340.156 399.78 339.631 400.574 339.421 401.324C339.256 401.878 339.526 403.437 341.822 408.174C342.047 408.639 342.273 409.118 342.498 409.598L345.575 406.465C343.203 404.996 339.18 401.429 341.267 399.345V399.33Z" fill="white"/>
<path d="M345.02 387.774C345.785 388.448 346.52 388.808 347.496 388.838C348.502 388.883 349.447 388.628 349.988 387.938C351.249 386.319 351.039 384.701 349.988 383.426C347.616 380.533 342.963 381.268 343.203 384.506C343.278 385.555 343.819 386.709 345.005 387.759L345.02 387.774Z" fill="#303E84"/>
<path d="M345.875 386.364C344.269 385.45 343.338 386.769 343.879 387.938C344.239 388.718 345.26 389.422 346.145 389.167C347.166 388.882 347.346 387.204 345.875 386.364Z" fill="#CBE3FF"/>
<path d="M338.31 390.636C337.515 391.715 337.004 393.949 337.74 395.058C340.952 400.035 343.143 401.414 344.809 402.493C345.995 403.257 348.397 404.247 349.643 403.003C350.783 401.848 350.648 394.548 348.922 391.296C348.397 390.306 346.521 388.223 345.44 387.953C342.303 387.158 339.301 389.272 338.295 390.636H338.31Z" fill="url(#paint107_linear_197_10174)"/>
<path d="M343.789 394.489C341.612 395.643 342.603 396.887 342.498 397.952C342.348 399.465 340.096 397.082 339.045 397.202C336.374 397.487 334.212 389.647 341.102 387.369C346.34 385.63 349.763 390.307 349.057 391.686C348.832 392.12 348.397 392.046 343.804 394.489H343.789Z" fill="#303E84"/>
<path d="M339.391 399.391C341.417 400.905 342.498 399.81 341.477 398.132C339.331 394.624 336.374 397.127 339.391 399.391Z" fill="#FBBD9E"/>
<path d="M336.179 392.165C335.983 394.009 337.574 394.323 338.43 393.364C339 392.719 339.226 391.505 338.655 390.801C337.98 389.976 336.374 390.486 336.194 392.18L336.179 392.165Z" fill="#CBE3FF"/>
<path d="M337.815 392.39C338.13 391.431 338.16 390.606 337.8 389.692C337.424 388.763 336.824 387.998 335.968 387.773C333.972 387.264 332.576 388.118 331.826 389.572C330.129 392.9 332.681 396.857 335.548 395.343C336.479 394.848 337.319 393.889 337.8 392.39H337.815Z" fill="#303E84"/>
<path d="M218.065 597.001H188.165L153.897 577.244L192.368 555.074L218.065 597.001Z" fill="url(#paint108_linear_197_10174)"/>
<path d="M218.065 564.653L188.991 547.895L218.065 531.121L247.139 547.895L218.065 564.653Z" fill="url(#paint109_linear_197_10174)"/>
<path d="M218.065 597.001L188.991 580.243V547.895L218.065 564.653V597.001Z" fill="url(#paint110_linear_197_10174)"/>
<path d="M247.139 580.243L218.065 597.001V564.653L247.139 547.895V580.243Z" fill="url(#paint111_linear_197_10174)"/>
<path d="M128.801 571.19H117.438L106.181 564.699L120.785 556.26L128.801 571.19Z" fill="url(#paint112_linear_197_10174)"/>
<path d="M128.801 558.898L117.753 552.527L128.801 546.156L139.848 552.527L128.801 558.898Z" fill="url(#paint113_linear_197_10174)"/>
<path d="M128.801 571.19L117.753 564.819V552.527L128.801 558.898V571.19Z" fill="url(#paint114_linear_197_10174)"/>
<path d="M139.848 564.819L128.801 571.19V558.898L139.848 552.527V564.819Z" fill="url(#paint115_linear_197_10174)"/>
</g>
<defs>
<linearGradient id="paint0_linear_197_10174" x1="430" y1="406.786" x2="446.451" y2="406.786" gradientUnits="userSpaceOnUse">
<stop stop-color="#91AFD3"/>
<stop offset="0.55" stop-color="#84A1C3"/>
<stop offset="1" stop-color="#7F9CBD"/>
</linearGradient>
<linearGradient id="paint1_linear_197_10174" x1="438.421" y1="398.632" x2="454.481" y2="398.632" gradientUnits="userSpaceOnUse">
<stop stop-color="#CBE3FF"/>
<stop offset="1" stop-color="#E4FFD9"/>
</linearGradient>
<linearGradient id="paint2_linear_197_10174" x1="444.365" y1="402.065" x2="440.5" y2="408.785" gradientUnits="userSpaceOnUse">
<stop stop-color="#8DB2DC"/>
<stop offset="1" stop-color="#82A2CB"/>
</linearGradient>
<linearGradient id="paint3_linear_197_10174" x1="448.522" y1="402.065" x2="452.402" y2="408.785" gradientUnits="userSpaceOnUse">
<stop stop-color="#BBDAFF"/>
<stop offset="1" stop-color="#ABC8EB"/>
</linearGradient>
<linearGradient id="paint4_linear_197_10174" x1="446" y1="496.534" x2="458.278" y2="496.534" gradientUnits="userSpaceOnUse">
<stop stop-color="#91AFD3"/>
<stop offset="0.55" stop-color="#84A1C3"/>
<stop offset="1" stop-color="#7F9CBD"/>
</linearGradient>
<linearGradient id="paint5_linear_197_10174" x1="452.289" y1="490.463" x2="464.267" y2="490.463" gradientUnits="userSpaceOnUse">
<stop stop-color="#CBE3FF"/>
<stop offset="1" stop-color="#E4FFD9"/>
</linearGradient>
<linearGradient id="paint6_linear_197_10174" x1="456.732" y1="493.011" x2="453.841" y2="498.021" gradientUnits="userSpaceOnUse">
<stop stop-color="#8DB2DC"/>
<stop offset="1" stop-color="#82A2CB"/>
</linearGradient>
<linearGradient id="paint7_linear_197_10174" x1="459.824" y1="493.011" x2="462.715" y2="498.021" gradientUnits="userSpaceOnUse">
<stop stop-color="#BBDAFF"/>
<stop offset="1" stop-color="#ABC8EB"/>
</linearGradient>
<linearGradient id="paint8_linear_197_10174" x1="382.109" y1="543.788" x2="416.482" y2="543.788" gradientUnits="userSpaceOnUse">
<stop stop-color="#91AFD3"/>
<stop offset="0.55" stop-color="#84A1C3"/>
<stop offset="1" stop-color="#7F9CBD"/>
</linearGradient>
<linearGradient id="paint9_linear_197_10174" x1="403.003" y1="564.638" x2="421.12" y2="564.638" gradientUnits="userSpaceOnUse">
<stop stop-color="#91AFD3"/>
<stop offset="0.55" stop-color="#84A1C3"/>
<stop offset="1" stop-color="#7F9CBD"/>
</linearGradient>
<linearGradient id="paint10_linear_197_10174" x1="400.902" y1="528.707" x2="432.063" y2="528.707" gradientUnits="userSpaceOnUse">
<stop stop-color="#CBE3FF"/>
<stop offset="1" stop-color="#E4FFD9"/>
</linearGradient>
<linearGradient id="paint11_linear_197_10174" x1="412.46" y1="535.363" x2="404.955" y2="548.367" gradientUnits="userSpaceOnUse">
<stop stop-color="#8DB2DC"/>
<stop offset="1" stop-color="#82A2CB"/>
</linearGradient>
<linearGradient id="paint12_linear_197_10174" x1="420.52" y1="535.363" x2="428.01" y2="548.367" gradientUnits="userSpaceOnUse">
<stop stop-color="#BBDAFF"/>
<stop offset="1" stop-color="#ABC8EB"/>
</linearGradient>
<linearGradient id="paint13_linear_197_10174" x1="412.28" y1="555.675" x2="429.961" y2="555.675" gradientUnits="userSpaceOnUse">
<stop stop-color="#CBE3FF"/>
<stop offset="1" stop-color="#E4FFD9"/>
</linearGradient>
<linearGradient id="paint14_linear_197_10174" x1="418.839" y1="559.451" x2="414.57" y2="566.846" gradientUnits="userSpaceOnUse">
<stop stop-color="#8DB2DC"/>
<stop offset="1" stop-color="#82A2CB"/>
</linearGradient>
<linearGradient id="paint15_linear_197_10174" x1="423.402" y1="559.451" x2="427.671" y2="566.846" gradientUnits="userSpaceOnUse">
<stop stop-color="#BBDAFF"/>
<stop offset="1" stop-color="#ABC8EB"/>
</linearGradient>
<linearGradient id="paint16_linear_197_10174" x1="80.9038" y1="416.403" x2="123.007" y2="416.403" gradientUnits="userSpaceOnUse">
<stop stop-color="#91AFD3"/>
<stop offset="0.55" stop-color="#84A1C3"/>
<stop offset="1" stop-color="#7F9CBD"/>
</linearGradient>
<linearGradient id="paint17_linear_197_10174" x1="103.944" y1="397.936" x2="142.084" y2="397.936" gradientUnits="userSpaceOnUse">
<stop stop-color="#CBE3FF"/>
<stop offset="1" stop-color="#E4FFD9"/>
</linearGradient>
<linearGradient id="paint18_linear_197_10174" x1="118.083" y1="406.09" x2="108.886" y2="422.02" gradientUnits="userSpaceOnUse">
<stop stop-color="#8DB2DC"/>
<stop offset="1" stop-color="#82A2CB"/>
</linearGradient>
<linearGradient id="paint19_linear_197_10174" x1="127.945" y1="406.09" x2="137.143" y2="422.02" gradientUnits="userSpaceOnUse">
<stop stop-color="#BBDAFF"/>
<stop offset="1" stop-color="#ABC8EB"/>
</linearGradient>
<linearGradient id="paint20_linear_197_10174" x1="0" y1="499.312" x2="307.209" y2="499.312" gradientUnits="userSpaceOnUse">
<stop stop-color="#91AFD3"/>
<stop offset="0.55" stop-color="#84A1C3"/>
<stop offset="1" stop-color="#7F9CBD"/>
</linearGradient>
<linearGradient id="paint21_linear_197_10174" x1="267.118" y1="500.917" x2="349.553" y2="500.917" gradientUnits="userSpaceOnUse">
<stop stop-color="#91AFD3"/>
<stop offset="0.55" stop-color="#84A1C3"/>
<stop offset="1" stop-color="#7F9CBD"/>
</linearGradient>
<linearGradient id="paint22_linear_197_10174" x1="349.552" y1="513.314" x2="388.954" y2="513.314" gradientUnits="userSpaceOnUse">
<stop stop-color="#BBDAFF"/>
<stop offset="1" stop-color="#ABC8EB"/>
</linearGradient>
<linearGradient id="paint23_linear_197_10174" x1="267.118" y1="478.132" x2="388.954" y2="478.132" gradientUnits="userSpaceOnUse">
<stop stop-color="#CBE3FF"/>
<stop offset="1" stop-color="#D9F9FF"/>
</linearGradient>
<linearGradient id="paint24_linear_197_10174" x1="243.672" y1="537.178" x2="259.682" y2="501.336" gradientUnits="userSpaceOnUse">
<stop stop-color="#9EBFE5"/>
<stop offset="1" stop-color="#91AFD3"/>
</linearGradient>
<linearGradient id="paint25_linear_197_10174" x1="293.385" y1="530.613" x2="332.786" y2="530.613" gradientUnits="userSpaceOnUse">
<stop stop-color="#BBDAFF"/>
<stop offset="1" stop-color="#ABC8EB"/>
</linearGradient>
<linearGradient id="paint26_linear_197_10174" x1="251.582" y1="540.715" x2="267.592" y2="504.874" gradientUnits="userSpaceOnUse">
<stop stop-color="#9EBFE5"/>
<stop offset="1" stop-color="#91AFD3"/>
</linearGradient>
<linearGradient id="paint27_linear_197_10174" x1="258.592" y1="543.848" x2="274.602" y2="508.007" gradientUnits="userSpaceOnUse">
<stop stop-color="#9EBFE5"/>
<stop offset="1" stop-color="#91AFD3"/>
</linearGradient>
<linearGradient id="paint28_linear_197_10174" x1="212.466" y1="523.238" x2="228.476" y2="487.396" gradientUnits="userSpaceOnUse">
<stop stop-color="#9EBFE5"/>
<stop offset="1" stop-color="#91AFD3"/>
</linearGradient>
<linearGradient id="paint29_linear_197_10174" x1="210.95" y1="447.434" x2="332.787" y2="447.434" gradientUnits="userSpaceOnUse">
<stop stop-color="#91AFD3"/>
<stop offset="0.55" stop-color="#84A1C3"/>
<stop offset="1" stop-color="#7F9CBD"/>
</linearGradient>
<linearGradient id="paint30_linear_197_10174" x1="293.445" y1="495.056" x2="375.865" y2="495.056" gradientUnits="userSpaceOnUse">
<stop stop-color="#BBDAFF"/>
<stop offset="1" stop-color="#ABC8EB"/>
</linearGradient>
<linearGradient id="paint31_linear_197_10174" x1="257.631" y1="543.414" x2="273.641" y2="507.572" gradientUnits="userSpaceOnUse">
<stop stop-color="#9EBFE5"/>
<stop offset="1" stop-color="#91AFD3"/>
</linearGradient>
<linearGradient id="paint32_linear_197_10174" x1="289.693" y1="495.566" x2="314.204" y2="472.898" gradientUnits="userSpaceOnUse">
<stop stop-color="#94B3D8"/>
<stop offset="1" stop-color="#89A7C9"/>
</linearGradient>
<linearGradient id="paint33_linear_197_10174" x1="250.352" y1="446.743" x2="332.786" y2="446.743" gradientUnits="userSpaceOnUse">
<stop stop-color="#BBDAFF"/>
<stop offset="1" stop-color="#ABC8EB"/>
</linearGradient>
<linearGradient id="paint34_linear_197_10174" x1="210.95" y1="459.14" x2="250.352" y2="459.14" gradientUnits="userSpaceOnUse">
<stop stop-color="#9EBFE5"/>
<stop offset="1" stop-color="#91AFD3"/>
</linearGradient>
<linearGradient id="paint35_linear_197_10174" x1="210.95" y1="423.958" x2="332.787" y2="423.958" gradientUnits="userSpaceOnUse">
<stop stop-color="#91AFD3"/>
<stop offset="0.55" stop-color="#84A1C3"/>
<stop offset="1" stop-color="#7F9CBD"/>
</linearGradient>
<linearGradient id="paint36_linear_197_10174" x1="254.029" y1="446.743" x2="336.464" y2="446.743" gradientUnits="userSpaceOnUse">
<stop stop-color="#BBDAFF"/>
<stop offset="1" stop-color="#ABC8EB"/>
</linearGradient>
<linearGradient id="paint37_linear_197_10174" x1="189.441" y1="475.913" x2="271.861" y2="475.913" gradientUnits="userSpaceOnUse">
<stop stop-color="#9EBFE5"/>
<stop offset="1" stop-color="#91AFD3"/>
</linearGradient>
<linearGradient id="paint38_linear_197_10174" x1="271.861" y1="488.31" x2="311.277" y2="488.31" gradientUnits="userSpaceOnUse">
<stop stop-color="#91AFD3"/>
<stop offset="0.55" stop-color="#84A1C3"/>
<stop offset="1" stop-color="#7F9CBD"/>
</linearGradient>
<linearGradient id="paint39_linear_197_10174" x1="189.441" y1="453.129" x2="311.277" y2="453.129" gradientUnits="userSpaceOnUse">
<stop stop-color="#91AFD3"/>
<stop offset="0.55" stop-color="#84A1C3"/>
<stop offset="1" stop-color="#7F9CBD"/>
</linearGradient>
<linearGradient id="paint40_linear_197_10174" x1="250.352" y1="423.598" x2="332.786" y2="423.598" gradientUnits="userSpaceOnUse">
<stop stop-color="#89A7C9"/>
<stop offset="0.34" stop-color="#84A1C3"/>
<stop offset="1" stop-color="#7F9CBD"/>
</linearGradient>
<linearGradient id="paint41_linear_197_10174" x1="205.262" y1="418.817" x2="291.211" y2="477.16" gradientUnits="userSpaceOnUse">
<stop stop-color="#85A3C5"/>
<stop offset="1" stop-color="#91AFD3"/>
</linearGradient>
<linearGradient id="paint42_linear_197_10174" x1="234.606" y1="375.587" x2="320.556" y2="433.944" gradientUnits="userSpaceOnUse">
<stop stop-color="#85A3C5"/>
<stop offset="1" stop-color="#91AFD3"/>
</linearGradient>
<linearGradient id="paint43_linear_197_10174" x1="293.445" y1="461.719" x2="329.785" y2="461.719" gradientUnits="userSpaceOnUse">
<stop stop-color="#91AFD3"/>
<stop offset="0.55" stop-color="#84A1C3"/>
<stop offset="1" stop-color="#7F9CBD"/>
</linearGradient>
<linearGradient id="paint44_linear_197_10174" x1="334.077" y1="436.715" x2="375.865" y2="436.715" gradientUnits="userSpaceOnUse">
<stop stop-color="#BBDAFF"/>
<stop offset="1" stop-color="#ABC8EB"/>
</linearGradient>
<linearGradient id="paint45_linear_197_10174" x1="207.273" y1="415.85" x2="293.222" y2="474.192" gradientUnits="userSpaceOnUse">
<stop stop-color="#85A3C5"/>
<stop offset="1" stop-color="#91AFD3"/>
</linearGradient>
<linearGradient id="paint46_linear_197_10174" x1="318.527" y1="418.427" x2="375.865" y2="418.427" gradientUnits="userSpaceOnUse">
<stop stop-color="#CBE3FF"/>
<stop offset="1" stop-color="#D9F9FF"/>
</linearGradient>
<linearGradient id="paint47_linear_197_10174" x1="229.218" y1="383.516" x2="315.167" y2="441.874" gradientUnits="userSpaceOnUse">
<stop stop-color="#85A3C5"/>
<stop offset="1" stop-color="#91AFD3"/>
</linearGradient>
<linearGradient id="paint48_linear_197_10174" x1="267.838" y1="456.218" x2="350.273" y2="456.218" gradientUnits="userSpaceOnUse">
<stop stop-color="#9EBFE5"/>
<stop offset="1" stop-color="#91AFD3"/>
</linearGradient>
<linearGradient id="paint49_linear_197_10174" x1="350.273" y1="468.63" x2="389.674" y2="468.63" gradientUnits="userSpaceOnUse">
<stop stop-color="#BBDAFF"/>
<stop offset="1" stop-color="#ABC8EB"/>
</linearGradient>
<linearGradient id="paint50_linear_197_10174" x1="267.838" y1="433.434" x2="389.674" y2="433.434" gradientUnits="userSpaceOnUse">
<stop stop-color="#CBE3FF"/>
<stop offset="1" stop-color="#D9F9FF"/>
</linearGradient>
<linearGradient id="paint51_linear_197_10174" x1="213.457" y1="376.725" x2="350.393" y2="376.725" gradientUnits="userSpaceOnUse">
<stop stop-color="#89A7CA"/>
<stop offset="1" stop-color="#91AFD3"/>
</linearGradient>
<linearGradient id="paint52_linear_197_10174" x1="213.457" y1="389.122" x2="350.393" y2="389.122" gradientUnits="userSpaceOnUse">
<stop stop-color="#89A7CA"/>
<stop offset="1" stop-color="#91AFD3"/>
</linearGradient>
<linearGradient id="paint53_linear_197_10174" x1="210.95" y1="353.941" x2="332.787" y2="353.941" gradientUnits="userSpaceOnUse">
<stop stop-color="#91AFD3"/>
<stop offset="0.55" stop-color="#84A1C3"/>
<stop offset="1" stop-color="#7F9CBD"/>
</linearGradient>
<linearGradient id="paint54_linear_197_10174" x1="293.445" y1="401.563" x2="375.865" y2="401.563" gradientUnits="userSpaceOnUse">
<stop stop-color="#BBDAFF"/>
<stop offset="1" stop-color="#ABC8EB"/>
</linearGradient>
<linearGradient id="paint55_linear_197_10174" x1="213.457" y1="413.96" x2="350.393" y2="413.96" gradientUnits="userSpaceOnUse">
<stop stop-color="#89A7CA"/>
<stop offset="1" stop-color="#91AFD3"/>
</linearGradient>
<linearGradient id="paint56_linear_197_10174" x1="254.029" y1="378.779" x2="375.865" y2="378.779" gradientUnits="userSpaceOnUse">
<stop stop-color="#91AFD3"/>
<stop offset="0.55" stop-color="#84A1C3"/>
<stop offset="1" stop-color="#7F9CBD"/>
</linearGradient>
<linearGradient id="paint57_linear_197_10174" x1="254.029" y1="353.792" x2="336.464" y2="353.792" gradientUnits="userSpaceOnUse">
<stop stop-color="#91AFD3"/>
<stop offset="0.55" stop-color="#84A1C3"/>
<stop offset="1" stop-color="#7F9CBD"/>
</linearGradient>
<linearGradient id="paint58_linear_197_10174" x1="336.464" y1="366.204" x2="375.865" y2="366.204" gradientUnits="userSpaceOnUse">
<stop stop-color="#BBDAFF"/>
<stop offset="1" stop-color="#ABC8EB"/>
</linearGradient>
<linearGradient id="paint59_linear_197_10174" x1="254.029" y1="331.008" x2="375.865" y2="331.008" gradientUnits="userSpaceOnUse">
<stop stop-color="#91AFD3"/>
<stop offset="0.55" stop-color="#84A1C3"/>
<stop offset="1" stop-color="#7F9CBD"/>
</linearGradient>
<linearGradient id="paint60_linear_197_10174" x1="213.457" y1="378.645" x2="350.393" y2="378.645" gradientUnits="userSpaceOnUse">
<stop stop-color="#92B0D4"/>
<stop offset="1" stop-color="#91AFD3"/>
</linearGradient>
<linearGradient id="paint61_linear_197_10174" x1="293.385" y1="391.042" x2="332.786" y2="391.042" gradientUnits="userSpaceOnUse">
<stop stop-color="#BBDAFF"/>
<stop offset="1" stop-color="#ABC8EB"/>
</linearGradient>
<linearGradient id="paint62_linear_197_10174" x1="213.457" y1="355.861" x2="350.393" y2="355.861" gradientUnits="userSpaceOnUse">
<stop stop-color="#89A7CA"/>
<stop offset="1" stop-color="#91AFD3"/>
</linearGradient>
<linearGradient id="paint63_linear_197_10174" x1="-6.74187e-05" y1="330.663" x2="1.50093" y2="330.663" gradientUnits="userSpaceOnUse">
<stop stop-color="#89A7CA"/>
<stop offset="1" stop-color="#91AFD3"/>
</linearGradient>
<linearGradient id="paint64_linear_197_10174" x1="213.457" y1="343.06" x2="350.393" y2="343.06" gradientUnits="userSpaceOnUse">
<stop stop-color="#89A7CA"/>
<stop offset="1" stop-color="#91AFD3"/>
</linearGradient>
<linearGradient id="paint65_linear_197_10174" x1="213.457" y1="307.878" x2="350.393" y2="307.878" gradientUnits="userSpaceOnUse">
<stop stop-color="#89A7CA"/>
<stop offset="1" stop-color="#91AFD3"/>
</linearGradient>
<linearGradient id="paint66_linear_197_10174" x1="293.445" y1="355.501" x2="375.865" y2="355.501" gradientUnits="userSpaceOnUse">
<stop stop-color="#BBDAFF"/>
<stop offset="1" stop-color="#ABC8EB"/>
</linearGradient>
<linearGradient id="paint67_linear_197_10174" x1="254.029" y1="367.898" x2="293.445" y2="367.898" gradientUnits="userSpaceOnUse">
<stop stop-color="#9EBFE5"/>
<stop offset="1" stop-color="#91AFD3"/>
</linearGradient>
<linearGradient id="paint68_linear_197_10174" x1="213.457" y1="332.717" x2="350.393" y2="332.717" gradientUnits="userSpaceOnUse">
<stop stop-color="#89A7CA"/>
<stop offset="1" stop-color="#91AFD3"/>
</linearGradient>
<linearGradient id="paint69_linear_197_10174" x1="254.029" y1="307.609" x2="336.464" y2="307.609" gradientUnits="userSpaceOnUse">
<stop stop-color="#91AFD3"/>
<stop offset="0.55" stop-color="#84A1C3"/>
<stop offset="1" stop-color="#7F9CBD"/>
</linearGradient>
<linearGradient id="paint70_linear_197_10174" x1="336.464" y1="320.021" x2="375.865" y2="320.021" gradientUnits="userSpaceOnUse">
<stop stop-color="#BBDAFF"/>
<stop offset="1" stop-color="#ABC8EB"/>
</linearGradient>
<linearGradient id="paint71_linear_197_10174" x1="254.029" y1="284.824" x2="375.865" y2="284.824" gradientUnits="userSpaceOnUse">
<stop stop-color="#91AFD3"/>
<stop offset="0.55" stop-color="#84A1C3"/>
<stop offset="1" stop-color="#7F9CBD"/>
</linearGradient>
<linearGradient id="paint72_linear_197_10174" x1="213.457" y1="345.308" x2="350.393" y2="345.308" gradientUnits="userSpaceOnUse">
<stop stop-color="#89A7CA"/>
<stop offset="1" stop-color="#91AFD3"/>
</linearGradient>
<linearGradient id="paint73_linear_197_10174" x1="317.176" y1="357.72" x2="356.577" y2="357.72" gradientUnits="userSpaceOnUse">
<stop stop-color="#BBDAFF"/>
<stop offset="1" stop-color="#ABC8EB"/>
</linearGradient>
<linearGradient id="paint74_linear_197_10174" x1="264.326" y1="331.053" x2="356.577" y2="331.053" gradientUnits="userSpaceOnUse">
<stop stop-color="#CBE3FF"/>
<stop offset="1" stop-color="#D9F9FF"/>
</linearGradient>
<linearGradient id="paint75_linear_197_10174" x1="-6.74187e-05" y1="284.464" x2="1.50093" y2="284.464" gradientUnits="userSpaceOnUse">
<stop stop-color="#89A7CA"/>
<stop offset="1" stop-color="#91AFD3"/>
</linearGradient>
<linearGradient id="paint76_linear_197_10174" x1="213.457" y1="296.876" x2="350.393" y2="296.876" gradientUnits="userSpaceOnUse">
<stop stop-color="#92B0D4"/>
<stop offset="1" stop-color="#91AFD3"/>
</linearGradient>
<linearGradient id="paint77_linear_197_10174" x1="213.457" y1="261.68" x2="350.393" y2="261.68" gradientUnits="userSpaceOnUse">
<stop stop-color="#89A7CA"/>
<stop offset="1" stop-color="#91AFD3"/>
</linearGradient>
<linearGradient id="paint78_linear_197_10174" x1="293.445" y1="309.317" x2="375.865" y2="309.317" gradientUnits="userSpaceOnUse">
<stop stop-color="#BBDAFF"/>
<stop offset="1" stop-color="#ABC8EB"/>
</linearGradient>
<linearGradient id="paint79_linear_197_10174" x1="213.457" y1="321.714" x2="350.393" y2="321.714" gradientUnits="userSpaceOnUse">
<stop stop-color="#92B0D4"/>
<stop offset="1" stop-color="#91AFD3"/>
</linearGradient>
<linearGradient id="paint80_linear_197_10174" x1="213.457" y1="286.533" x2="350.393" y2="286.533" gradientUnits="userSpaceOnUse">
<stop stop-color="#CBE3FF"/>
<stop offset="1" stop-color="#D9F9FF"/>
</linearGradient>
<linearGradient id="paint81_linear_197_10174" x1="213.457" y1="282.575" x2="350.393" y2="282.575" gradientUnits="userSpaceOnUse">
<stop stop-color="#89A7CA"/>
<stop offset="1" stop-color="#91AFD3"/>
</linearGradient>
<linearGradient id="paint82_linear_197_10174" x1="213.457" y1="261.38" x2="350.393" y2="261.38" gradientUnits="userSpaceOnUse">
<stop stop-color="#89A7CA"/>
<stop offset="1" stop-color="#91AFD3"/>
</linearGradient>
<linearGradient id="paint83_linear_197_10174" x1="336.464" y1="273.777" x2="375.865" y2="273.777" gradientUnits="userSpaceOnUse">
<stop stop-color="#BBDAFF"/>
<stop offset="1" stop-color="#ABC8EB"/>
</linearGradient>
<linearGradient id="paint84_linear_197_10174" x1="254.029" y1="238.595" x2="375.865" y2="238.595" gradientUnits="userSpaceOnUse">
<stop stop-color="#91AFD3"/>
<stop offset="0.55" stop-color="#84A1C3"/>
<stop offset="1" stop-color="#7F9CBD"/>
</linearGradient>
<linearGradient id="paint85_linear_197_10174" x1="-6.74187e-05" y1="238.235" x2="1.50093" y2="238.235" gradientUnits="userSpaceOnUse">
<stop stop-color="#89A7CA"/>
<stop offset="1" stop-color="#91AFD3"/>
</linearGradient>
<linearGradient id="paint86_linear_197_10174" x1="213.457" y1="250.632" x2="350.393" y2="250.632" gradientUnits="userSpaceOnUse">
<stop stop-color="#92B0D5"/>
<stop offset="1" stop-color="#91AFD3"/>
</linearGradient>
<linearGradient id="paint87_linear_197_10174" x1="213.457" y1="215.451" x2="350.393" y2="215.451" gradientUnits="userSpaceOnUse">
<stop stop-color="#89A7CA"/>
<stop offset="1" stop-color="#91AFD3"/>
</linearGradient>
<linearGradient id="paint88_linear_197_10174" x1="293.445" y1="263.074" x2="375.865" y2="263.074" gradientUnits="userSpaceOnUse">
<stop stop-color="#BBDAFF"/>
<stop offset="1" stop-color="#ABC8EB"/>
</linearGradient>
<linearGradient id="paint89_linear_197_10174" x1="213.457" y1="275.47" x2="350.393" y2="275.47" gradientUnits="userSpaceOnUse">
<stop stop-color="#92B0D5"/>
<stop offset="1" stop-color="#91AFD3"/>
</linearGradient>
<linearGradient id="paint90_linear_197_10174" x1="254.029" y1="240.289" x2="375.865" y2="240.289" gradientUnits="userSpaceOnUse">
<stop stop-color="#CBE3FF"/>
<stop offset="1" stop-color="#D9F9FF"/>
</linearGradient>
<linearGradient id="paint91_linear_197_10174" x1="213.457" y1="241.324" x2="350.393" y2="241.324" gradientUnits="userSpaceOnUse">
<stop stop-color="#89A7CA"/>
<stop offset="1" stop-color="#91AFD3"/>
</linearGradient>
<linearGradient id="paint92_linear_197_10174" x1="213.457" y1="236.226" x2="350.393" y2="236.226" gradientUnits="userSpaceOnUse">
<stop stop-color="#89A7CA"/>
<stop offset="1" stop-color="#91AFD3"/>
</linearGradient>
<linearGradient id="paint93_linear_197_10174" x1="296.612" y1="248.638" x2="336.029" y2="248.638" gradientUnits="userSpaceOnUse">
<stop stop-color="#BBDAFF"/>
<stop offset="1" stop-color="#ABC8EB"/>
</linearGradient>
<linearGradient id="paint94_linear_197_10174" x1="214.192" y1="213.441" x2="336.028" y2="213.441" gradientUnits="userSpaceOnUse">
<stop stop-color="#91AFD3"/>
<stop offset="0.55" stop-color="#84A1C3"/>
<stop offset="1" stop-color="#7F9CBD"/>
</linearGradient>
<linearGradient id="paint95_linear_197_10174" x1="250.352" y1="191.362" x2="332.786" y2="191.362" gradientUnits="userSpaceOnUse">
<stop stop-color="#BBDAFF"/>
<stop offset="1" stop-color="#ABC8EB"/>
</linearGradient>
<linearGradient id="paint96_linear_197_10174" x1="200.248" y1="292.904" x2="229.447" y2="207.078" gradientUnits="userSpaceOnUse">
<stop stop-color="#9EBFE5"/>
<stop offset="1" stop-color="#91AFD3"/>
</linearGradient>
<linearGradient id="paint97_linear_197_10174" x1="210.95" y1="168.578" x2="332.787" y2="168.578" gradientUnits="userSpaceOnUse">
<stop stop-color="#CBE3FF"/>
<stop offset="1" stop-color="#D9F9FF"/>
</linearGradient>
<linearGradient id="paint98_linear_197_10174" x1="293.445" y1="216.2" x2="375.865" y2="216.2" gradientUnits="userSpaceOnUse">
<stop stop-color="#BBDAFF"/>
<stop offset="1" stop-color="#ABC8EB"/>
</linearGradient>
<linearGradient id="paint99_linear_197_10174" x1="246.434" y1="308.613" x2="275.633" y2="222.802" gradientUnits="userSpaceOnUse">
<stop stop-color="#9EBFE5"/>
<stop offset="1" stop-color="#91AFD3"/>
</linearGradient>
<linearGradient id="paint100_linear_197_10174" x1="254.029" y1="193.416" x2="375.865" y2="193.416" gradientUnits="userSpaceOnUse">
<stop stop-color="#CBE3FF"/>
<stop offset="1" stop-color="#D9F9FF"/>
</linearGradient>
<linearGradient id="paint101_linear_197_10174" x1="244.483" y1="175.621" x2="300.335" y2="175.621" gradientUnits="userSpaceOnUse">
<stop stop-color="#91AFD3"/>
<stop offset="0.55" stop-color="#84A1C3"/>
<stop offset="1" stop-color="#7F9CBD"/>
</linearGradient>
<linearGradient id="paint102_linear_197_10174" x1="303.937" y1="443.836" x2="367.309" y2="443.836" gradientUnits="userSpaceOnUse">
<stop stop-color="#91AFD3"/>
<stop offset="0.55" stop-color="#84A1C3"/>
<stop offset="1" stop-color="#7F9CBD"/>
</linearGradient>
<linearGradient id="paint103_linear_197_10174" x1="385.531" y1="403.184" x2="385.202" y2="406.601" gradientUnits="userSpaceOnUse">
<stop stop-color="#FFCBB3"/>
<stop offset="1" stop-color="#FBBD9E"/>
</linearGradient>
<linearGradient id="paint104_linear_197_10174" x1="331.435" y1="438.889" x2="329.337" y2="440.99" gradientUnits="userSpaceOnUse">
<stop stop-color="#FFCBB3"/>
<stop offset="1" stop-color="#FBBD9E"/>
</linearGradient>
<linearGradient id="paint105_linear_197_10174" x1="330.835" y1="436.506" x2="327.552" y2="439.898" gradientUnits="userSpaceOnUse">
<stop stop-color="#FFCBB3"/>
<stop offset="1" stop-color="#FBBD9E"/>
</linearGradient>
<linearGradient id="paint106_linear_197_10174" x1="330.82" y1="436.805" x2="328.002" y2="433.699" gradientUnits="userSpaceOnUse">
<stop stop-color="#FFCBB3"/>
<stop offset="1" stop-color="#FBBD9E"/>
</linearGradient>
<linearGradient id="paint107_linear_197_10174" x1="350.483" y1="396.212" x2="343.279" y2="395.356" gradientUnits="userSpaceOnUse">
<stop stop-color="#FFCBB3"/>
<stop offset="1" stop-color="#FBBD9E"/>
</linearGradient>
<linearGradient id="paint108_linear_197_10174" x1="153.897" y1="576.03" x2="218.065" y2="576.03" gradientUnits="userSpaceOnUse">
<stop stop-color="#91AFD3"/>
<stop offset="0.55" stop-color="#84A1C3"/>
<stop offset="1" stop-color="#7F9CBD"/>
</linearGradient>
<linearGradient id="paint109_linear_197_10174" x1="188.991" y1="547.895" x2="247.139" y2="547.895" gradientUnits="userSpaceOnUse">
<stop stop-color="#CBE3FF"/>
<stop offset="1" stop-color="#E4FFD9"/>
</linearGradient>
<linearGradient id="paint110_linear_197_10174" x1="210.545" y1="560.306" x2="196.539" y2="584.591" gradientUnits="userSpaceOnUse">
<stop stop-color="#8DB2DC"/>
<stop offset="1" stop-color="#82A2CB"/>
</linearGradient>
<linearGradient id="paint111_linear_197_10174" x1="225.585" y1="560.306" x2="239.576" y2="584.591" gradientUnits="userSpaceOnUse">
<stop stop-color="#BBDAFF"/>
<stop offset="1" stop-color="#ABC8EB"/>
</linearGradient>
<linearGradient id="paint112_linear_197_10174" x1="106.181" y1="563.725" x2="128.801" y2="563.725" gradientUnits="userSpaceOnUse">
<stop stop-color="#91AFD3"/>
<stop offset="0.55" stop-color="#84A1C3"/>
<stop offset="1" stop-color="#7F9CBD"/>
</linearGradient>
<linearGradient id="paint113_linear_197_10174" x1="117.753" y1="552.527" x2="139.848" y2="552.527" gradientUnits="userSpaceOnUse">
<stop stop-color="#CBE3FF"/>
<stop offset="1" stop-color="#E4FFD9"/>
</linearGradient>
<linearGradient id="paint114_linear_197_10174" x1="125.949" y1="557.249" x2="120.631" y2="566.474" gradientUnits="userSpaceOnUse">
<stop stop-color="#8DB2DC"/>
<stop offset="1" stop-color="#82A2CB"/>
</linearGradient>
<linearGradient id="paint115_linear_197_10174" x1="131.668" y1="557.249" x2="136.985" y2="566.474" gradientUnits="userSpaceOnUse">
<stop stop-color="#BBDAFF"/>
<stop offset="1" stop-color="#ABC8EB"/>
</linearGradient>
<clipPath id="clip0_197_10174">
<rect width="511" height="597" fill="white"/>
</clipPath>
</defs>
</svg>
